<svg xmlns="http://www.w3.org/2000/svg" xmlns:xlink="http://www.w3.org/1999/xlink" width="500" zoomAndPan="magnify" viewBox="0 0 375 131.249995" height="175" preserveAspectRatio="xMidYMid meet" version="1.0"><defs><g/><clipPath id="99686082c7"><path d="M 21.703125 0 L 40.167969 0 L 40.167969 55.648438 L 21.703125 55.648438 Z M 21.703125 0 " clip-rule="nonzero"/></clipPath><clipPath id="a7d0ef7419"><path d="M 315.980469 0.0820312 L 353.46875 0.0820312 L 353.46875 18.550781 L 315.980469 18.550781 Z M 315.980469 0.0820312 " clip-rule="nonzero"/></clipPath><clipPath id="9140296fc1"><path d="M 21.980469 112.273438 L 59.472656 112.273438 L 59.472656 130.503906 L 21.980469 130.503906 Z M 21.980469 112.273438 " clip-rule="nonzero"/></clipPath><clipPath id="800db98a5d"><path d="M 315.695312 112.273438 L 353.1875 112.273438 L 353.1875 130.503906 L 315.695312 130.503906 Z M 315.695312 112.273438 " clip-rule="nonzero"/></clipPath><clipPath id="01cd6c5464"><path d="M 21.980469 0 L 59.472656 0 L 59.472656 18.46875 L 21.980469 18.46875 Z M 21.980469 0 " clip-rule="nonzero"/></clipPath><clipPath id="27367774f9"><path d="M 21.703125 74.84375 L 40.167969 74.84375 L 40.167969 130.5 L 21.703125 130.5 Z M 21.703125 74.84375 " clip-rule="nonzero"/></clipPath><clipPath id="f538034c34"><path d="M 334.730469 75.085938 L 353.191406 75.085938 L 353.191406 130.503906 L 334.730469 130.503906 Z M 334.730469 75.085938 " clip-rule="nonzero"/></clipPath><clipPath id="fa16afe678"><path d="M 334.730469 0 L 353.191406 0 L 353.191406 55.648438 L 334.730469 55.648438 Z M 334.730469 0 " clip-rule="nonzero"/></clipPath></defs><g clip-path="url(#99686082c7)"><path fill="#6f0fc2" d="M 21.703125 55.648438 L 21.703125 -0.0234375 L 40.167969 -0.0234375 L 40.167969 55.648438 Z M 21.703125 55.648438 " fill-opacity="1" fill-rule="nonzero"/></g><g clip-path="url(#a7d0ef7419)"><path fill="#6f0fc2" d="M 353.46875 18.550781 L 315.953125 18.550781 L 315.953125 0.0820312 L 353.46875 0.0820312 Z M 353.46875 18.550781 " fill-opacity="1" fill-rule="nonzero"/></g><g fill="#090f16" fill-opacity="1"><g transform="translate(49.97786, 87.022265)"><g><path d="M 21.03125 -13.75 L 11.796875 -16.234375 C 8.390625 -17.234375 6.035156 -18.59375 4.734375 -20.3125 C 3.429688 -22.039062 2.78125 -24.4375 2.78125 -27.5 C 2.78125 -31.351562 3.96875 -34.082031 6.34375 -35.6875 C 8.726562 -37.289062 12.800781 -38.09375 18.5625 -38.09375 C 25.21875 -37.988281 30.925781 -37.507812 35.6875 -36.65625 L 34.9375 -29.53125 C 28.625 -29.625 23.863281 -29.671875 20.65625 -29.671875 C 18.90625 -29.671875 17.691406 -29.65625 17.015625 -29.625 C 16.335938 -29.601562 15.660156 -29.519531 14.984375 -29.375 C 14.304688 -29.226562 13.890625 -28.988281 13.734375 -28.65625 C 13.585938 -28.332031 13.515625 -27.84375 13.515625 -27.1875 C 13.515625 -26.9375 13.523438 -26.710938 13.546875 -26.515625 C 13.578125 -26.316406 13.640625 -26.128906 13.734375 -25.953125 C 13.835938 -25.773438 13.925781 -25.632812 14 -25.53125 C 14.082031 -25.4375 14.222656 -25.328125 14.421875 -25.203125 C 14.617188 -25.078125 14.78125 -24.988281 14.90625 -24.9375 C 15.03125 -24.882812 15.253906 -24.796875 15.578125 -24.671875 C 15.910156 -24.546875 16.164062 -24.457031 16.34375 -24.40625 C 16.519531 -24.363281 16.84375 -24.28125 17.3125 -24.15625 C 17.789062 -24.03125 18.15625 -23.941406 18.40625 -23.890625 L 27.875 -21.328125 C 31.175781 -20.378906 33.523438 -19.113281 34.921875 -17.53125 C 36.328125 -15.957031 37.03125 -13.617188 37.03125 -10.515625 C 37.03125 -6.109375 35.753906 -3.113281 33.203125 -1.53125 C 30.648438 0.0390625 26.269531 0.828125 20.0625 0.828125 C 14.050781 0.828125 8.515625 0.398438 3.453125 -0.453125 L 4.125 -7.65625 C 5.9375 -7.5625 10.222656 -7.515625 16.984375 -7.515625 C 20.835938 -7.515625 23.351562 -7.675781 24.53125 -8 C 25.707031 -8.320312 26.296875 -9.085938 26.296875 -10.296875 C 26.296875 -10.546875 26.28125 -10.769531 26.25 -10.96875 C 26.226562 -11.164062 26.164062 -11.351562 26.0625 -11.53125 C 25.96875 -11.707031 25.867188 -11.84375 25.765625 -11.9375 C 25.671875 -12.039062 25.507812 -12.15625 25.28125 -12.28125 C 25.050781 -12.40625 24.875 -12.503906 24.75 -12.578125 C 24.625 -12.660156 24.382812 -12.765625 24.03125 -12.890625 C 23.6875 -13.015625 23.410156 -13.097656 23.203125 -13.140625 C 23.003906 -13.191406 22.65625 -13.28125 22.15625 -13.40625 C 21.65625 -13.53125 21.28125 -13.644531 21.03125 -13.75 Z M 21.03125 -13.75 "/></g></g></g><g fill="#090f16" fill-opacity="1"><g transform="translate(89.568319, 87.022265)"><g><path d="M 15.703125 -52.59375 L 15.703125 -12.09375 C 15.703125 -9.59375 17.101562 -8.34375 19.90625 -8.34375 L 22.90625 -8.34375 L 24.1875 -0.59375 C 22.28125 0.40625 19.328125 0.90625 15.328125 0.90625 C 12.023438 0.90625 9.421875 0.015625 7.515625 -1.765625 C 5.609375 -3.546875 4.65625 -6.0625 4.65625 -9.3125 L 4.65625 -52.59375 Z M 15.703125 -52.59375 "/></g></g></g><g fill="#090f16" fill-opacity="1"><g transform="translate(114.133936, 87.022265)"><g><path d="M 22.09375 -38.09375 C 29 -38.09375 33.890625 -36.601562 36.765625 -33.625 C 39.648438 -30.644531 41.09375 -25.597656 41.09375 -18.484375 C 41.09375 -11.367188 39.648438 -6.34375 36.765625 -3.40625 C 33.890625 -0.476562 29 0.984375 22.09375 0.984375 C 15.125 0.984375 10.195312 -0.476562 7.3125 -3.40625 C 4.4375 -6.34375 3 -11.367188 3 -18.484375 C 3 -25.640625 4.4375 -30.695312 7.3125 -33.65625 C 10.195312 -36.613281 15.125 -38.09375 22.09375 -38.09375 Z M 22.09375 -29.75 C 19.132812 -29.75 17.15625 -28.992188 16.15625 -27.484375 C 15.15625 -25.984375 14.65625 -22.984375 14.65625 -18.484375 C 14.65625 -14.078125 15.15625 -11.117188 16.15625 -9.609375 C 17.15625 -8.109375 19.132812 -7.359375 22.09375 -7.359375 C 24.945312 -7.359375 26.882812 -8.109375 27.90625 -9.609375 C 28.9375 -11.117188 29.453125 -14.078125 29.453125 -18.484375 C 29.453125 -22.941406 28.945312 -25.929688 27.9375 -27.453125 C 26.9375 -28.984375 24.988281 -29.75 22.09375 -29.75 Z M 22.09375 -29.75 "/></g></g></g><g fill="#090f16" fill-opacity="1"><g transform="translate(158.23184, 87.022265)"><g><path d="M 31.171875 -38.09375 L 30.046875 -27.796875 L 27.046875 -27.796875 C 24.585938 -27.796875 20.804688 -26.941406 15.703125 -25.234375 L 15.703125 0 L 4.578125 0 L 4.578125 -37.03125 L 13.21875 -37.03125 L 14.203125 -31.625 C 19.253906 -35.9375 24.257812 -38.09375 29.21875 -38.09375 Z M 31.171875 -38.09375 "/></g></g></g><g fill="#090f16" fill-opacity="1"><g transform="translate(190.15962, 87.022265)"><g><path d="M 5.5625 -28.765625 L 4.5 -36.28125 C 11.164062 -37.488281 17.601562 -38.09375 23.8125 -38.09375 C 28.820312 -38.09375 32.503906 -37.078125 34.859375 -35.046875 C 37.210938 -33.015625 38.390625 -29.492188 38.390625 -24.484375 L 38.390625 0 L 29.59375 0 L 28.46875 -5.640625 C 24.757812 -1.273438 20.203125 0.90625 14.796875 0.90625 C 11.242188 0.90625 8.335938 -0.03125 6.078125 -1.90625 C 3.828125 -3.789062 2.703125 -6.410156 2.703125 -9.765625 L 2.703125 -13.515625 C 2.703125 -16.472656 3.703125 -18.773438 5.703125 -20.421875 C 7.710938 -22.078125 10.492188 -22.90625 14.046875 -22.90625 L 27.265625 -22.90625 L 27.265625 -24.5625 C 27.210938 -26.46875 26.773438 -27.742188 25.953125 -28.390625 C 25.128906 -29.046875 23.539062 -29.375 21.1875 -29.375 C 17.082031 -29.375 11.875 -29.171875 5.5625 -28.765625 Z M 13.671875 -12.703125 L 13.671875 -11.265625 C 13.671875 -8.710938 15.125 -7.4375 18.03125 -7.4375 C 21.03125 -7.4375 24.109375 -8.640625 27.265625 -11.046875 L 27.265625 -16.234375 L 17.28125 -16.234375 C 14.875 -16.179688 13.671875 -15.003906 13.671875 -12.703125 Z M 13.671875 -12.703125 "/></g></g></g><g fill="#090f16" fill-opacity="1"><g transform="translate(232.755042, 87.022265)"><g><path d="M 31.171875 -38.09375 L 30.046875 -27.796875 L 27.046875 -27.796875 C 24.585938 -27.796875 20.804688 -26.941406 15.703125 -25.234375 L 15.703125 0 L 4.578125 0 L 4.578125 -37.03125 L 13.21875 -37.03125 L 14.203125 -31.625 C 19.253906 -35.9375 24.257812 -38.09375 29.21875 -38.09375 Z M 31.171875 -38.09375 "/></g></g></g><g fill="#090f16" fill-opacity="1"><g transform="translate(264.682822, 87.022265)"><g><path d="M 7.890625 -53.40625 L 12.84375 -53.40625 C 15 -53.40625 16.078125 -52.332031 16.078125 -50.1875 L 16.078125 -46.125 C 16.078125 -43.96875 15 -42.890625 12.84375 -42.890625 L 7.890625 -42.890625 C 5.734375 -42.890625 4.65625 -43.96875 4.65625 -46.125 L 4.65625 -50.1875 C 4.65625 -52.332031 5.734375 -53.40625 7.890625 -53.40625 Z M 15.921875 0 L 4.890625 0 L 4.890625 -37.03125 L 15.921875 -37.03125 Z M 15.921875 0 "/></g></g></g><g fill="#090f16" fill-opacity="1"><g transform="translate(285.4171, 87.022265)"><g><path d="M 21.03125 -13.75 L 11.796875 -16.234375 C 8.390625 -17.234375 6.035156 -18.59375 4.734375 -20.3125 C 3.429688 -22.039062 2.78125 -24.4375 2.78125 -27.5 C 2.78125 -31.351562 3.96875 -34.082031 6.34375 -35.6875 C 8.726562 -37.289062 12.800781 -38.09375 18.5625 -38.09375 C 25.21875 -37.988281 30.925781 -37.507812 35.6875 -36.65625 L 34.9375 -29.53125 C 28.625 -29.625 23.863281 -29.671875 20.65625 -29.671875 C 18.90625 -29.671875 17.691406 -29.65625 17.015625 -29.625 C 16.335938 -29.601562 15.660156 -29.519531 14.984375 -29.375 C 14.304688 -29.226562 13.890625 -28.988281 13.734375 -28.65625 C 13.585938 -28.332031 13.515625 -27.84375 13.515625 -27.1875 C 13.515625 -26.9375 13.523438 -26.710938 13.546875 -26.515625 C 13.578125 -26.316406 13.640625 -26.128906 13.734375 -25.953125 C 13.835938 -25.773438 13.925781 -25.632812 14 -25.53125 C 14.082031 -25.4375 14.222656 -25.328125 14.421875 -25.203125 C 14.617188 -25.078125 14.78125 -24.988281 14.90625 -24.9375 C 15.03125 -24.882812 15.253906 -24.796875 15.578125 -24.671875 C 15.910156 -24.546875 16.164062 -24.457031 16.34375 -24.40625 C 16.519531 -24.363281 16.84375 -24.28125 17.3125 -24.15625 C 17.789062 -24.03125 18.15625 -23.941406 18.40625 -23.890625 L 27.875 -21.328125 C 31.175781 -20.378906 33.523438 -19.113281 34.921875 -17.53125 C 36.328125 -15.957031 37.03125 -13.617188 37.03125 -10.515625 C 37.03125 -6.109375 35.753906 -3.113281 33.203125 -1.53125 C 30.648438 0.0390625 26.269531 0.828125 20.0625 0.828125 C 14.050781 0.828125 8.515625 0.398438 3.453125 -0.453125 L 4.125 -7.65625 C 5.9375 -7.5625 10.222656 -7.515625 16.984375 -7.515625 C 20.835938 -7.515625 23.351562 -7.675781 24.53125 -8 C 25.707031 -8.320312 26.296875 -9.085938 26.296875 -10.296875 C 26.296875 -10.546875 26.28125 -10.769531 26.25 -10.96875 C 26.226562 -11.164062 26.164062 -11.351562 26.0625 -11.53125 C 25.96875 -11.707031 25.867188 -11.84375 25.765625 -11.9375 C 25.671875 -12.039062 25.507812 -12.15625 25.28125 -12.28125 C 25.050781 -12.40625 24.875 -12.503906 24.75 -12.578125 C 24.625 -12.660156 24.382812 -12.765625 24.03125 -12.890625 C 23.6875 -13.015625 23.410156 -13.097656 23.203125 -13.140625 C 23.003906 -13.191406 22.65625 -13.28125 22.15625 -13.40625 C 21.65625 -13.53125 21.28125 -13.644531 21.03125 -13.75 Z M 21.03125 -13.75 "/></g></g></g><g clip-path="url(#9140296fc1)"><path fill="#6f0fc2" d="M 59.472656 130.742188 L 21.957031 130.742188 L 21.957031 112.273438 L 59.472656 112.273438 Z M 59.472656 130.742188 " fill-opacity="1" fill-rule="nonzero"/></g><g clip-path="url(#800db98a5d)"><path fill="#6f0fc2" d="M 353.1875 130.742188 L 315.667969 130.742188 L 315.667969 112.273438 L 353.1875 112.273438 Z M 353.1875 130.742188 " fill-opacity="1" fill-rule="nonzero"/></g><g clip-path="url(#01cd6c5464)"><path fill="#6f0fc2" d="M 59.472656 18.46875 L 21.957031 18.46875 L 21.957031 0 L 59.472656 0 Z M 59.472656 18.46875 " fill-opacity="1" fill-rule="nonzero"/></g><g clip-path="url(#27367774f9)"><path fill="#6f0fc2" d="M 21.703125 130.5 L 21.703125 74.824219 L 40.167969 74.824219 L 40.167969 130.5 Z M 21.703125 130.5 " fill-opacity="1" fill-rule="nonzero"/></g><g clip-path="url(#f538034c34)"><path fill="#6f0fc2" d="M 334.730469 130.738281 L 334.730469 75.066406 L 353.191406 75.066406 L 353.191406 130.738281 Z M 334.730469 130.738281 " fill-opacity="1" fill-rule="nonzero"/></g><g clip-path="url(#fa16afe678)"><path fill="#6f0fc2" d="M 334.730469 55.648438 L 334.730469 -0.0234375 L 353.191406 -0.0234375 L 353.191406 55.648438 Z M 334.730469 55.648438 " fill-opacity="1" fill-rule="nonzero"/></g></svg>